<svg width="24" height="24" viewBox="0 0 24 24" fill="none" xmlns="http://www.w3.org/2000/svg">
<path d="M11.5001 21.3761C10.409 21.3761 9.38055 21.1679 8.41478 20.7514C7.449 20.3349 6.60899 19.7696 5.89477 19.0554C5.18055 18.3411 4.6152 17.503 4.19872 16.5409C3.78222 15.5789 3.57397 14.5523 3.57397 13.4612C3.57397 13.1262 3.69115 12.8396 3.92549 12.6015C4.15984 12.3635 4.44826 12.2444 4.79075 12.2444C5.12577 12.2444 5.41232 12.3635 5.6504 12.6015C5.88848 12.8396 6.00752 13.1262 6.00752 13.4612C6.00752 14.9866 6.5416 16.2815 7.60977 17.346C8.67794 18.4104 9.97473 18.9426 11.5001 18.9426C13.0255 18.9426 14.3223 18.4085 15.3905 17.3404C16.4586 16.2722 16.9927 14.9754 16.9927 13.45C16.9927 11.9246 16.4568 10.6297 15.3849 9.56525C14.313 8.50081 13.0143 7.96858 11.4889 7.96858H11.433L11.8581 8.39367C12.0503 8.58584 12.1492 8.81904 12.155 9.09326C12.1607 9.36747 12.0712 9.6064 11.8865 9.81006C11.6943 10.0344 11.4498 10.1494 11.1529 10.1551C10.856 10.1609 10.602 10.0582 10.3909 9.84707L8.12263 7.62696C7.88169 7.37856 7.75978 7.08828 7.7569 6.75612C7.75404 6.42397 7.87308 6.13368 8.11402 5.88527L10.3255 3.67377C10.5366 3.46266 10.7859 3.3604 11.0733 3.367C11.3607 3.3736 11.61 3.48245 11.8211 3.69356C12.019 3.90467 12.1194 4.15064 12.1223 4.43145C12.1251 4.71227 12.021 4.95824 11.8099 5.16935L11.4442 5.53506H11.4889C12.5801 5.53506 13.6085 5.7433 14.5743 6.15978C15.5401 6.57626 16.3819 7.14162 17.0999 7.85585C17.8178 8.57006 18.385 9.40819 18.8015 10.3702C19.218 11.3323 19.4263 12.3589 19.4263 13.45C19.4263 14.5411 19.218 15.5696 18.8015 16.5353C18.385 17.5011 17.8197 18.3411 17.1055 19.0554C16.3913 19.7696 15.5512 20.3349 14.5855 20.7514C13.6197 21.1679 12.5913 21.3761 11.5001 21.3761Z" fill="#E8E0ED"/>
</svg>
